<svg xmlns="http://www.w3.org/2000/svg" viewBox="0 0 1125 2436"><defs><style>.cls-1{fill:#fff;}.cls-2{fill:#fab570;}.cls-3{fill:#77bcff;}</style></defs><title>login-background</title><g id="Lag_2" data-name="Lag 2"><path class="cls-1" d="M648.75,2199.14c201.44-70.93,339.76-215.43,339.76-215.43s170.55-205.15,77.73-359.7-32.92-268.12-32.92-268.12,27.37-47.16,91.68-89.62V0H251.27C209.6,132.42,311.55,359.28,595.44,489.94c301.56,142.06,182,519.39,0,569.91s-317.16,190-317.16,190S108.76,1451.4,172.71,1632.93s0,297.74,0,297.74S117.7,2022.8,0,2052.28V2436H472.44C479.74,2332.27,551.11,2233.53,648.75,2199.14Z"/><path class="cls-2" d="M1125,1266.27c-64.31,42.46-91.68,89.62-91.68,89.62s-59.89,113.57,32.92,268.12-77.73,359.7-77.73,359.7-138.32,144.5-339.76,215.43c-97.64,34.39-169,133.13-176.31,236.86H1125Z"/><path class="cls-3" d="M172.71,1930.67s63.95-116.2,0-297.74,105.57-383.06,105.57-383.06,135.16-139.49,317.16-190S897,632,595.44,489.94C311.55,359.28,209.6,132.42,251.27,0H0V2052.28C117.7,2022.8,172.71,1930.67,172.71,1930.67Z"/></g></svg>