<svg id="Lag_1" data-name="Lag 1" xmlns="http://www.w3.org/2000/svg" viewBox="0 0 1125 2436"><defs><style>.cls-1{fill:#fff;}.cls-2{fill:#89ffdb;}.cls-3{fill:#77bcff;}</style></defs><title>new-account-background</title><path class="cls-1" d="M410.18,0H0V760.55C145.39,911.67,334,983,371.74,996.66,722.68,1107,653.2,1481,460.15,1555.66s-320.6,230.1-320.6,230.1-155.84,221-57.1,390.27c68.66,117.67,64.17,212.87,55.06,260H1125V614.68c-84.56-35-198.11-69.82-349.92-97.58C414.21,451.1,332.47,186.44,410.18,0Z"/><path class="cls-2" d="M82.45,2176c-98.74-169.24,57.1-390.27,57.1-390.27s127.55-155.45,320.6-230.1,262.53-448.65-88.41-559C334,983,145.39,911.67,0,760.55V2436H137.51C146.62,2388.9,151.11,2293.7,82.45,2176Z"/><path class="cls-3" d="M410.18,0c-77.71,186.44,4,451.1,364.9,517.1,151.81,27.76,265.36,62.57,349.92,97.58V0Z"/></svg>